<?xml version="1.0" encoding="UTF-8"?>
<svg xmlns="http://www.w3.org/2000/svg" viewBox="0 0 512 512" fill="none">
  <defs>
    <linearGradient id="bg" x1="80" y1="64" x2="432" y2="448" gradientUnits="userSpaceOnUse">
      <stop offset="0" stop-color="#0C1224"/>
      <stop offset="0.5" stop-color="#141E34"/>
      <stop offset="1" stop-color="#080E18"/>
    </linearGradient>
    <linearGradient id="gold" x1="128" y1="96" x2="384" y2="416" gradientUnits="userSpaceOnUse">
      <stop offset="0" stop-color="#F0E2B8"/>
      <stop offset="0.35" stop-color="#D4B76A"/>
      <stop offset="1" stop-color="#9A7B3C"/>
    </linearGradient>
    <linearGradient id="arcGlow" x1="256" y1="88" x2="256" y2="424" gradientUnits="userSpaceOnUse">
      <stop offset="0" stop-color="#E8D5A3" stop-opacity="0.5"/>
      <stop offset="1" stop-color="#0A66C2" stop-opacity="0.15"/>
    </linearGradient>
  </defs>

  <!-- Tile -->
  <rect width="512" height="512" rx="108" fill="url(#bg)"/>

  <!-- Inner frame -->
  <rect x="24" y="24" width="464" height="464" rx="92" stroke="url(#gold)" stroke-opacity="0.18" stroke-width="2"/>

  <!-- Soft center glow -->
  <circle cx="256" cy="268" r="148" fill="url(#arcGlow)" opacity="0.85"/>

  <!-- Score / coach ring -->
  <path
    d="M 256 108 A 148 148 0 1 1 148 332"
    stroke="url(#gold)"
    stroke-width="20"
    stroke-linecap="round"
    fill="none"/>
  <path
    d="M 256 128 A 128 128 0 0 1 332 176"
    stroke="#F0E2B8"
    stroke-opacity="0.35"
    stroke-width="8"
    stroke-linecap="round"
    fill="none"/>

  <!-- Monogram P (no silhouette) -->
  <path
    fill="url(#gold)"
    d="M 178 148 H 238 C 286 148 318 178 318 224 C 318 270 286 300 238 300 H 218 V 368 H 178 V 148 Z M 218 188 V 260 H 234 C 262 260 278 248 278 224 C 278 200 262 188 234 188 H 218 Z"/>

  <!-- AI spark -->
  <path
    fill="url(#gold)"
    d="M 342 132 L 352 158 L 378 168 L 352 178 L 342 204 L 332 178 L 306 168 L 332 158 Z"/>
</svg>
